<?xml version="1.0" encoding="UTF-8"?>
<!DOCTYPE svg PUBLIC "-//W3C//DTD SVG 1.1//EN" "http://www.w3.org/Graphics/SVG/1.1/DTD/svg11.dtd">
<svg xmlns="http://www.w3.org/2000/svg" version="1.1" width="500px" height="500px" style="shape-rendering:geometricPrecision; text-rendering:geometricPrecision; image-rendering:optimizeQuality; fill-rule:evenodd; clip-rule:evenodd" xmlns:xlink="http://www.w3.org/1999/xlink">
<g><path style="opacity:0.106" fill="#c5d6d4" d="M 183.5,113.5 C 182.713,115.104 181.38,115.771 179.5,115.5C 180.514,114.326 181.847,113.66 183.5,113.5 Z"/></g>
<g><path style="opacity:0.561" fill="#8cb2ab" d="M 160.5,125.5 C 159.461,127.531 157.795,128.864 155.5,129.5C 156.579,127.457 158.246,126.124 160.5,125.5 Z"/></g>
<g><path style="opacity:0.086" fill="#becfcc" d="M 341.5,127.5 C 343.027,127.427 344.027,128.094 344.5,129.5C 342.973,129.573 341.973,128.906 341.5,127.5 Z"/></g>
<g><path style="opacity:0.043" fill="#c6dad6" d="M 384.5,171.5 C 385.906,171.973 386.573,172.973 386.5,174.5C 385.094,174.027 384.427,173.027 384.5,171.5 Z"/></g>
<g><path style="opacity:0.149" fill="#accdbd" d="M 393.5,188.5 C 394.906,188.973 395.573,189.973 395.5,191.5C 394.094,191.027 393.427,190.027 393.5,188.5 Z"/></g>
<g><path style="opacity:0.031" fill="#cbe8d6" d="M 399.5,202.5 C 400.674,203.514 401.34,204.847 401.5,206.5C 399.896,205.713 399.229,204.38 399.5,202.5 Z"/></g>
<g><path style="opacity:0.098" fill="#b4cac2" d="M 66.5,266.5 C 66.3404,268.153 65.6737,269.486 64.5,270.5C 64.2291,268.62 64.8958,267.287 66.5,266.5 Z"/></g>
<g><path style="opacity:0.778" fill="#577a78" d="M 435.5,273.5 C 436.662,289.661 436.828,305.995 436,322.5C 435.722,323.416 435.222,324.082 434.5,324.5C 435.458,307.535 435.791,290.535 435.5,273.5 Z"/></g>
<g><path style="opacity:1" fill="#20696e" d="M 341.5,127.5 C 341.973,128.906 342.973,129.573 344.5,129.5C 360.953,140.617 374.286,154.617 384.5,171.5C 384.427,173.027 385.094,174.027 386.5,174.5C 389.715,178.718 392.048,183.385 393.5,188.5C 393.427,190.027 394.094,191.027 395.5,191.5C 397.22,194.992 398.554,198.659 399.5,202.5C 399.229,204.38 399.896,205.713 401.5,206.5C 404.15,217.1 406.483,227.767 408.5,238.5C 423.239,245.887 432.239,257.553 435.5,273.5C 435.791,290.535 435.458,307.535 434.5,324.5C 433.35,331.988 430.35,338.655 425.5,344.5C 419.482,351.533 412.148,356.533 403.5,359.5C 397.966,359.668 392.633,360.335 387.5,361.5C 386.5,361.5 385.5,361.5 384.5,361.5C 380.343,360.551 376.01,359.884 371.5,359.5C 369.864,358.251 368.697,356.584 368,354.5C 367.333,316.833 367.333,279.167 368,241.5C 368.833,238 371,235.833 374.5,235C 377.833,234.667 381.167,234.333 384.5,234C 381.853,220.558 377.52,207.725 371.5,195.5C 371.244,193.208 371.577,191.041 372.5,189C 371.234,188.691 370.067,188.191 369,187.5C 367.527,184.375 365.693,181.541 363.5,179C 363.833,178.667 364.167,178.333 364.5,178C 361.975,175.804 359.475,173.638 357,171.5C 356.28,169.888 356.446,168.388 357.5,167C 356.428,165.716 355.095,165.383 353.5,166C 351.349,164.595 349.682,162.761 348.5,160.5C 347.311,159.571 345.978,159.238 344.5,159.5C 299.007,121.191 248.34,113.025 192.5,135C 158.992,151.005 135.326,176.171 121.5,210.5C 119.896,211.287 119.229,212.62 119.5,214.5C 119.44,217.341 118.774,220.007 117.5,222.5C 115.837,224.438 115.171,226.772 115.5,229.5C 115.5,230.167 115.5,230.833 115.5,231.5C 114.566,232.568 114.232,233.901 114.5,235.5C 117.833,235.5 121.167,235.5 124.5,235.5C 128.909,236.248 131.242,238.914 131.5,243.5C 130.167,279.833 130.167,316.167 131.5,352.5C 131.17,356.996 128.837,359.829 124.5,361C 92.0495,365.373 71.5495,351.873 63,320.5C 62.3333,305.5 62.3333,290.5 63,275.5C 64.0086,273.975 64.5086,272.308 64.5,270.5C 65.6737,269.486 66.3404,268.153 66.5,266.5C 67.9225,260.326 70.9225,254.992 75.5,250.5C 80.5458,245.564 86.0458,241.231 92,237.5C 96.9521,191.924 118.119,155.924 155.5,129.5C 157.795,128.864 159.461,127.531 160.5,125.5C 166.418,121.374 172.751,118.041 179.5,115.5C 181.38,115.771 182.713,115.104 183.5,113.5C 231.158,93.8232 278.492,94.9899 325.5,117C 331.07,120.275 336.403,123.775 341.5,127.5 Z"/></g>
<g><path style="opacity:1" fill="#a5806e" d="M 109.5,339.5 C 109.5,312.167 109.5,284.833 109.5,257.5C 107.265,257.205 105.265,257.539 103.5,258.5C 101.188,259.32 98.8543,260.153 96.5,261C 94.2968,263.372 91.9635,265.539 89.5,267.5C 92.2287,262.438 96.2287,258.771 101.5,256.5C 104.43,255.701 107.43,255.368 110.5,255.5C 110.831,283.672 110.498,311.672 109.5,339.5 Z"/></g>
<g><path style="opacity:1" fill="#ec8e67" d="M 201.5,271.5 C 199.904,278.458 197.237,284.958 193.5,291C 189.834,290.335 186.5,288.835 183.5,286.5C 188.745,286.168 192.412,286.834 194.5,288.5C 195.992,282.864 197.326,277.198 198.5,271.5C 199.5,271.5 200.5,271.5 201.5,271.5 Z"/></g>
<g><path style="opacity:1" fill="#ee906a" d="M 347.5,271.5 C 346.857,276.22 345.524,280.72 343.5,285C 332.833,285.333 322.167,285.667 311.5,286C 306.205,287.794 301.539,290.627 297.5,294.5C 297.52,292.857 296.853,291.524 295.5,290.5C 297.326,290.08 299.326,290.08 301.5,290.5C 301.714,288.856 301.38,287.356 300.5,286C 314.554,282.793 328.888,281.626 343.5,282.5C 343.942,278.846 344.276,275.179 344.5,271.5C 345.5,271.5 346.5,271.5 347.5,271.5 Z"/></g>
<g><path style="opacity:0.132" fill="#f4b594" d="M 153.5,278.5 C 155.086,280.081 156.086,282.081 156.5,284.5C 165.658,285.167 174.658,285.833 183.5,286.5C 174.143,286.832 164.81,286.498 155.5,285.5C 154.054,283.382 153.387,281.049 153.5,278.5 Z"/></g>
<g><path style="opacity:1" fill="#589b96" d="M 395.5,256.5 C 393.5,256.5 391.5,256.5 389.5,256.5C 389.5,284.167 389.5,311.833 389.5,339.5C 391.167,339.5 392.833,339.5 394.5,339.5C 392.735,340.461 390.735,340.795 388.5,340.5C 388.5,312.167 388.5,283.833 388.5,255.5C 391.059,255.198 393.393,255.532 395.5,256.5 Z"/></g>
<g><path style="opacity:0.914" fill="#ec9675" d="M 261.5,265.5 C 258.823,276.29 256.156,286.956 253.5,297.5C 253.955,288.984 255.122,280.65 257,272.5C 258.163,270.715 258.83,268.715 259,266.5C 259.671,265.748 260.504,265.414 261.5,265.5 Z"/></g>
<g><path style="opacity:1" fill="#e07f5c" d="M 103.5,258.5 C 105.265,257.539 107.265,257.205 109.5,257.5C 109.5,284.833 109.5,312.167 109.5,339.5C 105.018,339.966 101.018,338.966 97.5,336.5C 99.7925,336.756 101.959,336.423 104,335.5C 104.483,336.448 104.649,337.448 104.5,338.5C 105.833,338.5 107.167,338.5 108.5,338.5C 108.5,311.833 108.5,285.167 108.5,258.5C 106.833,258.5 105.167,258.5 103.5,258.5 Z"/></g>
<g><path style="opacity:1" fill="#b97a61" d="M 89.5,267.5 C 88.5353,270.493 87.2019,273.16 85.5,275.5C 85.2593,271.981 86.5926,269.315 89.5,267.5 Z"/></g>
<g><path style="opacity:1" fill="#f4784e" d="M 103.5,258.5 C 105.167,258.5 106.833,258.5 108.5,258.5C 108.5,285.167 108.5,311.833 108.5,338.5C 107.167,338.5 105.833,338.5 104.5,338.5C 104.649,337.448 104.483,336.448 104,335.5C 101.959,336.423 99.7925,336.756 97.5,336.5C 96.0892,334.086 94.0892,332.419 91.5,331.5C 89.4364,328.456 87.4364,325.456 85.5,322.5C 84.1769,306.735 84.1769,291.069 85.5,275.5C 87.2019,273.16 88.5353,270.493 89.5,267.5C 91.9635,265.539 94.2968,263.372 96.5,261C 98.8543,260.153 101.188,259.32 103.5,258.5 Z"/></g>
<g><path style="opacity:1" fill="#ed8c69" d="M 282.5,266.5 C 283.5,266.5 284.5,266.5 285.5,266.5C 286.008,271.216 286.842,275.882 288,280.5C 288.71,281.973 289.876,282.64 291.5,282.5C 291.833,286.5 292.167,290.5 292.5,294.5C 294.167,294.5 295.833,294.5 297.5,294.5C 296.134,297.858 294.301,298.525 292,296.5C 288.209,286.662 285.043,276.662 282.5,266.5 Z"/></g>
<g><path style="opacity:1" fill="#7fbca9" d="M 395.5,256.5 C 404.031,259.529 410.198,265.195 414,273.5C 415.599,288.112 415.932,302.778 415,317.5C 413.141,329.524 406.308,336.857 394.5,339.5C 392.833,339.5 391.167,339.5 389.5,339.5C 389.5,311.833 389.5,284.167 389.5,256.5C 391.5,256.5 393.5,256.5 395.5,256.5 Z"/></g>
<g><path style="opacity:0.588" fill="#dd8867" d="M 346.5,243.5 C 348.046,248.233 348.713,253.233 348.5,258.5C 348.499,262.349 348.165,266.016 347.5,269.5C 347.479,260.818 347.146,252.152 346.5,243.5 Z"/></g>
<g><path style="opacity:1" fill="#e78965" d="M 335.5,221.5 C 341.269,227.705 344.936,235.038 346.5,243.5C 343.53,239.679 341.363,235.346 340,230.5C 338.693,229.228 337.193,228.228 335.5,227.5C 336.623,225.518 336.623,223.518 335.5,221.5 Z"/></g>
<g><path style="opacity:0.914" fill="#e39573" d="M 158.5,228.5 C 156.43,235.211 154.263,241.877 152,248.5C 151.5,255.158 151.334,261.825 151.5,268.5C 148.482,254.251 150.816,240.918 158.5,228.5 Z"/></g>
<g><path style="opacity:0.322" fill="#afc9bf" d="M 115.5,231.5 C 115.5,232.5 115.5,233.5 115.5,234.5C 118.713,234.19 121.713,234.523 124.5,235.5C 121.167,235.5 117.833,235.5 114.5,235.5C 114.232,233.901 114.566,232.568 115.5,231.5 Z"/></g>
<g><path style="opacity:0.424" fill="#9fb9aa" d="M 117.5,222.5 C 117.279,225.067 116.612,227.401 115.5,229.5C 115.171,226.772 115.837,224.438 117.5,222.5 Z"/></g>
<g><path style="opacity:0.275" fill="#a6c2be" d="M 121.5,210.5 C 121.34,212.153 120.674,213.486 119.5,214.5C 119.229,212.62 119.896,211.287 121.5,210.5 Z"/></g>
<g><path style="opacity:0.639" fill="#e7936f" d="M 319.5,208.5 C 311.284,205.708 302.784,203.708 294,202.5C 287.169,203.792 280.336,205.125 273.5,206.5C 275.48,204.895 277.813,203.728 280.5,203C 289.5,201 298.5,201 307.5,203C 311.939,204.056 315.939,205.889 319.5,208.5 Z"/></g>
<g><path style="opacity:1" fill="#ed845e" d="M 192.5,203.5 C 195.5,203.5 198.5,203.5 201.5,203.5C 198.695,204.319 195.695,204.819 192.5,205C 193.5,205.333 194.5,205.667 195.5,206C 192.833,206.333 190.167,206.667 187.5,207C 185.445,207.687 183.779,208.854 182.5,210.5C 176.988,211.826 172.322,214.659 168.5,219C 171.559,221.576 171.059,223.076 167,223.5C 166.228,223.355 165.561,223.022 165,222.5C 163.98,223.891 163.147,225.391 162.5,227C 161.552,227.483 160.552,227.649 159.5,227.5C 167.121,214.882 178.121,206.882 192.5,203.5 Z"/></g>
<g><path style="opacity:1" fill="#f5794d" d="M 217.5,203.5 C 219.102,205.074 221.102,205.741 223.5,205.5C 225.339,208.135 228.006,209.468 231.5,209.5C 232.922,209.709 234.255,210.209 235.5,211C 238.432,213.285 241.098,215.785 243.5,218.5C 244.343,221.884 245.843,224.884 248,227.5C 250.571,226.356 252.738,224.689 254.5,222.5C 257.316,225.257 257.982,224.757 256.5,221C 258.949,218.495 260.949,215.662 262.5,212.5C 265.4,209.214 269.067,207.214 273.5,206.5C 280.336,205.125 287.169,203.792 294,202.5C 302.784,203.708 311.284,205.708 319.5,208.5C 325.998,211.325 331.331,215.658 335.5,221.5C 336.623,223.518 336.623,225.518 335.5,227.5C 337.193,228.228 338.693,229.228 340,230.5C 341.363,235.346 343.53,239.679 346.5,243.5C 347.146,252.152 347.479,260.818 347.5,269.5C 347.5,270.167 347.5,270.833 347.5,271.5C 346.5,271.5 345.5,271.5 344.5,271.5C 344.276,275.179 343.942,278.846 343.5,282.5C 328.888,281.626 314.554,282.793 300.5,286C 301.38,287.356 301.714,288.856 301.5,290.5C 299.326,290.08 297.326,290.08 295.5,290.5C 296.853,291.524 297.52,292.857 297.5,294.5C 295.833,294.5 294.167,294.5 292.5,294.5C 292.167,290.5 291.833,286.5 291.5,282.5C 289.876,282.64 288.71,281.973 288,280.5C 286.842,275.882 286.008,271.216 285.5,266.5C 284.5,266.5 283.5,266.5 282.5,266.5C 280.953,265.232 279.953,263.565 279.5,261.5C 279.8,258.756 278.633,257.089 276,256.5C 272.511,255.411 269.011,255.411 265.5,256.5C 265.5,257.5 265.5,258.5 265.5,259.5C 263.808,261.205 262.475,263.205 261.5,265.5C 260.504,265.414 259.671,265.748 259,266.5C 258.83,268.715 258.163,270.715 257,272.5C 255.122,280.65 253.955,288.984 253.5,297.5C 252.81,304.31 251.477,310.977 249.5,317.5C 248.5,317.5 247.5,317.5 246.5,317.5C 246.785,319.288 246.452,320.955 245.5,322.5C 245.167,322 244.833,321.5 244.5,321C 241.869,309.191 239.702,297.358 238,285.5C 237.329,284.748 236.496,284.414 235.5,284.5C 234.676,281.236 234.342,277.902 234.5,274.5C 234.23,270.184 233.23,266.184 231.5,262.5C 231.719,258.777 232.052,255.277 232.5,252C 229.83,249.522 227.496,246.689 225.5,243.5C 223.955,242.548 222.288,242.215 220.5,242.5C 218.712,241.378 216.712,241.211 214.5,242C 213.109,243.02 211.609,243.853 210,244.5C 209.517,245.448 209.351,246.448 209.5,247.5C 208.5,247.5 207.5,247.5 206.5,247.5C 206.657,248.873 206.49,250.207 206,251.5C 205.667,251.167 205.333,250.833 205,250.5C 203.306,252.57 203.139,254.736 204.5,257C 202.081,261.486 201.081,266.32 201.5,271.5C 200.5,271.5 199.5,271.5 198.5,271.5C 197.326,277.198 195.992,282.864 194.5,288.5C 192.412,286.834 188.745,286.168 183.5,286.5C 174.658,285.833 165.658,285.167 156.5,284.5C 156.086,282.081 155.086,280.081 153.5,278.5C 152.215,275.411 151.549,272.078 151.5,268.5C 151.334,261.825 151.5,255.158 152,248.5C 154.263,241.877 156.43,235.211 158.5,228.5C 158.5,227.833 158.833,227.5 159.5,227.5C 160.552,227.649 161.552,227.483 162.5,227C 163.147,225.391 163.98,223.891 165,222.5C 165.561,223.022 166.228,223.355 167,223.5C 171.059,223.076 171.559,221.576 168.5,219C 172.322,214.659 176.988,211.826 182.5,210.5C 183.779,208.854 185.445,207.687 187.5,207C 190.167,206.667 192.833,206.333 195.5,206C 194.5,205.667 193.5,205.333 192.5,205C 195.695,204.819 198.695,204.319 201.5,203.5C 206.657,202.789 211.99,202.789 217.5,203.5 Z"/></g>
<g><path style="opacity:0.463" fill="#e4b398" d="M 272.5,275.5 C 271.222,275.782 270.222,276.449 269.5,277.5C 269.33,276.178 269.663,275.011 270.5,274C 271.816,273.472 272.483,273.972 272.5,275.5 Z"/></g>
<g><path style="opacity:1" fill="#e98e69" d="M 222.5,277.5 C 219.388,273.491 217.721,268.824 217.5,263.5C 216.52,266.086 216.187,268.753 216.5,271.5C 215.5,271.5 214.5,271.5 213.5,271.5C 214.115,267.152 215.615,263.152 218,259.5C 218.915,260.328 219.581,261.328 220,262.5C 220.9,267.501 221.734,272.501 222.5,277.5 Z"/></g>
<g><path style="opacity:0.898" fill="#e89375" d="M 231.5,262.5 C 233.23,266.184 234.23,270.184 234.5,274.5C 232.77,270.816 231.77,266.816 231.5,262.5 Z"/></g>
<g><path style="opacity:1" fill="#ec8b67" d="M 279.5,261.5 C 275.36,257.143 270.694,256.477 265.5,259.5C 265.5,258.5 265.5,257.5 265.5,256.5C 269.011,255.411 272.511,255.411 276,256.5C 278.633,257.089 279.8,258.756 279.5,261.5 Z"/></g>
<g><path style="opacity:1" fill="#ed8965" d="M 220.5,242.5 C 222.288,242.215 223.955,242.548 225.5,243.5C 227.496,246.689 229.83,249.522 232.5,252C 232.052,255.277 231.719,258.777 231.5,262.5C 229.737,257.26 227.904,251.927 226,246.5C 224.188,245.023 222.355,243.69 220.5,242.5 Z"/></g>
<g><path style="opacity:1" fill="#ef916b" d="M 209.5,247.5 C 207.127,255.686 204.46,263.686 201.5,271.5C 201.081,266.32 202.081,261.486 204.5,257C 203.139,254.736 203.306,252.57 205,250.5C 205.333,250.833 205.667,251.167 206,251.5C 206.49,250.207 206.657,248.873 206.5,247.5C 207.5,247.5 208.5,247.5 209.5,247.5 Z"/></g>
<g><path style="opacity:0.553" fill="#eba382" d="M 220.5,242.5 C 216.199,242.818 212.532,244.485 209.5,247.5C 209.351,246.448 209.517,245.448 210,244.5C 211.609,243.853 213.109,243.02 214.5,242C 216.712,241.211 218.712,241.378 220.5,242.5 Z"/></g>
<g><path style="opacity:1" fill="#eb825a" d="M 262.5,212.5 C 260.949,215.662 258.949,218.495 256.5,221C 257.982,224.757 257.316,225.257 254.5,222.5C 252.738,224.689 250.571,226.356 248,227.5C 245.843,224.884 244.343,221.884 243.5,218.5C 245.836,220.004 247.669,222.004 249,224.5C 253.094,219.898 257.594,215.898 262.5,212.5 Z"/></g>
<g><path style="opacity:0.894" fill="#e98e6f" d="M 223.5,205.5 C 226.721,205.896 229.388,207.229 231.5,209.5C 228.006,209.468 225.339,208.135 223.5,205.5 Z"/></g>
<g><path style="opacity:0.486" fill="#e29d82" d="M 217.5,203.5 C 219.786,203.595 221.786,204.262 223.5,205.5C 221.102,205.741 219.102,205.074 217.5,203.5 Z"/></g>
<g><path style="opacity:0.32" fill="#f0a580" d="M 217.5,203.5 C 211.99,202.789 206.657,202.789 201.5,203.5C 198.5,203.5 195.5,203.5 192.5,203.5C 200.833,200.833 209.167,200.833 217.5,203.5 Z"/></g>
<g><path style="opacity:1" fill="#517e7c" d="M 344.5,159.5 C 345.978,159.238 347.311,159.571 348.5,160.5C 349.682,162.761 351.349,164.595 353.5,166C 355.095,165.383 356.428,165.716 357.5,167C 356.446,168.388 356.28,169.888 357,171.5C 359.475,173.638 361.975,175.804 364.5,178C 364.167,178.333 363.833,178.667 363.5,179C 365.693,181.541 367.527,184.375 369,187.5C 370.067,188.191 371.234,188.691 372.5,189C 371.577,191.041 371.244,193.208 371.5,195.5C 364.469,182.142 355.469,170.142 344.5,159.5 Z"/></g>
<g><path style="opacity:0.078" fill="#f6b79a" d="M 178.5,297.5 C 173.125,297.172 167.792,297.505 162.5,298.5C 162.863,299.183 163.196,299.85 163.5,300.5C 161.824,299.817 161.157,298.483 161.5,296.5C 167.358,296.178 173.025,296.511 178.5,297.5 Z"/></g>
<g><path style="opacity:1" fill="#ec926f" d="M 328.5,311.5 C 328.5,309.833 328.5,308.167 328.5,306.5C 329.5,306.5 330.5,306.5 331.5,306.5C 331.232,303.881 331.565,301.381 332.5,299C 325.174,298.5 317.841,298.334 310.5,298.5C 312.148,297.073 314.148,296.24 316.5,296C 323.492,295.5 330.492,295.334 337.5,295.5C 337.657,296.873 337.49,298.207 337,299.5C 334.39,303.742 331.557,307.742 328.5,311.5 Z"/></g>
<g><path style="opacity:0.531" fill="#5d7a7b" d="M 131.5,243.5 C 132.81,280.05 132.81,316.383 131.5,352.5C 130.167,316.167 130.167,279.833 131.5,243.5 Z"/></g>
<g><path style="opacity:1" fill="#f5794e" d="M 222.5,277.5 C 223.323,280.684 223.99,284.017 224.5,287.5C 224.785,292.897 224.451,298.23 223.5,303.5C 225.98,307.712 227.98,312.046 229.5,316.5C 229.802,321.214 230.468,325.88 231.5,330.5C 233.37,334.779 235.036,339.112 236.5,343.5C 239.909,343.791 243.076,344.791 246,346.5C 248.51,345.425 251.01,344.425 253.5,343.5C 253.5,342.5 253.5,341.5 253.5,340.5C 256.217,334.686 258.551,328.686 260.5,322.5C 263.472,317.685 265.305,312.351 266,306.5C 267.621,297.984 268.788,289.317 269.5,280.5C 269.5,279.5 269.5,278.5 269.5,277.5C 270.222,276.449 271.222,275.782 272.5,275.5C 275.606,281.813 277.939,288.48 279.5,295.5C 280.205,300.31 281.205,304.977 282.5,309.5C 285.5,309.5 288.5,309.5 291.5,309.5C 293.327,310.582 295.327,310.582 297.5,309.5C 298.713,309.253 299.38,308.586 299.5,307.5C 304.012,305.666 307.679,302.666 310.5,298.5C 317.841,298.334 325.174,298.5 332.5,299C 331.565,301.381 331.232,303.881 331.5,306.5C 330.5,306.5 329.5,306.5 328.5,306.5C 328.5,308.167 328.5,309.833 328.5,311.5C 324.177,317.155 319.51,322.488 314.5,327.5C 312.5,327.5 311.5,328.5 311.5,330.5C 309.5,332.5 307.5,334.5 305.5,336.5C 303.533,336.739 301.699,336.406 300,335.5C 299.355,336.646 298.522,337.646 297.5,338.5C 297.709,339.086 298.043,339.586 298.5,340C 296.801,340.393 295.301,339.893 294,338.5C 292.715,338.95 291.548,339.617 290.5,340.5C 289.575,343.905 288.575,347.239 287.5,350.5C 282.832,349.839 280.832,351.839 281.5,356.5C 280.109,358.89 278.109,360.557 275.5,361.5C 272.745,362.344 270.079,363.344 267.5,364.5C 267.5,365.833 267.5,367.167 267.5,368.5C 262.678,372.411 257.678,376.078 252.5,379.5C 250.097,379.552 247.764,379.219 245.5,378.5C 243.157,375.998 240.823,373.498 238.5,371C 237.207,370.51 235.873,370.343 234.5,370.5C 233.5,370.167 232.833,369.5 232.5,368.5C 232.372,366.91 231.705,365.577 230.5,364.5C 228.082,363.543 225.916,362.209 224,360.5C 223.922,358.343 223.755,356.343 223.5,354.5C 223.167,354.167 222.833,353.833 222.5,353.5C 221.614,354.325 221.281,355.325 221.5,356.5C 220.167,356.5 218.833,356.5 217.5,356.5C 217.33,355.178 217.663,354.011 218.5,353C 214.106,353.497 211.772,351.664 211.5,347.5C 208.777,346.648 206.11,345.481 203.5,344C 204.672,343.581 205.672,342.915 206.5,342C 205.333,341.5 204.5,340.667 204,339.5C 203.751,340.624 203.251,341.624 202.5,342.5C 200.925,341.544 199.258,340.877 197.5,340.5C 197.167,338.167 195.833,336.833 193.5,336.5C 189.86,333.527 186.527,330.194 183.5,326.5C 181.657,321.801 178.99,317.634 175.5,314C 174.255,313.209 172.922,312.709 171.5,312.5C 167.828,309.151 165.161,305.151 163.5,300.5C 163.196,299.85 162.863,299.183 162.5,298.5C 167.792,297.505 173.125,297.172 178.5,297.5C 178.5,298.5 178.5,299.5 178.5,300.5C 183.451,301.705 188.451,302.705 193.5,303.5C 195.167,303.333 196.833,303.167 198.5,303C 199.056,302.617 199.389,302.117 199.5,301.5C 201.887,299.087 204.054,296.42 206,293.5C 208.41,286.101 210.91,278.768 213.5,271.5C 214.5,271.5 215.5,271.5 216.5,271.5C 216.187,268.753 216.52,266.086 217.5,263.5C 217.721,268.824 219.388,273.491 222.5,277.5 Z"/></g>
<g><path style="opacity:1" fill="#ea9675" d="M 178.5,297.5 C 182.105,298.963 185.771,300.463 189.5,302C 192.888,302.659 196.221,302.492 199.5,301.5C 199.389,302.117 199.056,302.617 198.5,303C 196.833,303.167 195.167,303.333 193.5,303.5C 188.451,302.705 183.451,301.705 178.5,300.5C 178.5,299.5 178.5,298.5 178.5,297.5 Z"/></g>
<g><path style="opacity:0.09" fill="#f8bb9d" d="M 225.5,295.5 C 226.924,297.515 227.59,299.848 227.5,302.5C 226.076,300.485 225.41,298.152 225.5,295.5 Z"/></g>
<g><path style="opacity:1" fill="#ea936d" d="M 235.5,284.5 C 236.496,284.414 237.329,284.748 238,285.5C 239.702,297.358 241.869,309.191 244.5,321C 244.833,321.5 245.167,322 245.5,322.5C 246.452,320.955 246.785,319.288 246.5,317.5C 247.5,317.5 248.5,317.5 249.5,317.5C 249.1,321.441 247.933,325.107 246,328.5C 245.333,327.833 244.667,327.167 244,326.5C 240.628,312.598 237.794,298.598 235.5,284.5 Z"/></g>
<g><path style="opacity:1" fill="#ec845c" d="M 224.5,287.5 C 225.473,289.948 225.806,292.615 225.5,295.5C 225.41,298.152 226.076,300.485 227.5,302.5C 228.796,307.062 229.462,311.729 229.5,316.5C 227.98,312.046 225.98,307.712 223.5,303.5C 224.451,298.23 224.785,292.897 224.5,287.5 Z"/></g>
<g><path style="opacity:0.796" fill="#ea9c77" d="M 310.5,298.5 C 307.679,302.666 304.012,305.666 299.5,307.5C 302.871,304.129 306.537,301.129 310.5,298.5 Z"/></g>
<g><path style="opacity:1" fill="#eb8a63" d="M 279.5,295.5 C 281.076,298.352 282.576,301.352 284,304.5C 285.913,307.28 288.413,308.947 291.5,309.5C 288.5,309.5 285.5,309.5 282.5,309.5C 281.205,304.977 280.205,300.31 279.5,295.5 Z"/></g>
<g><path style="opacity:0.451" fill="#f7ad8d" d="M 299.5,307.5 C 299.38,308.586 298.713,309.253 297.5,309.5C 295.327,310.582 293.327,310.582 291.5,309.5C 294.267,309.142 296.933,308.475 299.5,307.5 Z"/></g>
<g><path style="opacity:1" fill="#eb8c68" d="M 171.5,312.5 C 172.922,312.709 174.255,313.209 175.5,314C 178.99,317.634 181.657,321.801 183.5,326.5C 179.155,322.153 175.155,317.486 171.5,312.5 Z"/></g>
<g><path style="opacity:0.984" fill="#ea8d6c" d="M 269.5,280.5 C 268.788,289.317 267.621,297.984 266,306.5C 265.305,312.351 263.472,317.685 260.5,322.5C 263.139,308.294 266.139,294.294 269.5,280.5 Z"/></g>
<g><path style="opacity:0.055" fill="#fdd7c2" d="M 231.5,325.5 C 232.674,326.514 233.34,327.847 233.5,329.5C 231.896,328.713 231.229,327.38 231.5,325.5 Z"/></g>
<g><path style="opacity:0.043" fill="#facfb9" d="M 314.5,327.5 C 313.833,328.833 312.833,329.833 311.5,330.5C 311.5,328.5 312.5,327.5 314.5,327.5 Z"/></g>
<g><path style="opacity:1" fill="#e78765" d="M 229.5,316.5 C 231.118,319.171 231.785,322.171 231.5,325.5C 231.229,327.38 231.896,328.713 233.5,329.5C 234.553,334.106 236.553,338.273 239.5,342C 244.553,345.407 249.219,344.907 253.5,340.5C 253.5,341.5 253.5,342.5 253.5,343.5C 251.01,344.425 248.51,345.425 246,346.5C 243.076,344.791 239.909,343.791 236.5,343.5C 235.036,339.112 233.37,334.779 231.5,330.5C 230.468,325.88 229.802,321.214 229.5,316.5 Z"/></g>
<g><path style="opacity:1" fill="#346262" d="M 85.5,322.5 C 87.4364,325.456 89.4364,328.456 91.5,331.5C 92.9108,333.914 94.9108,335.581 97.5,336.5C 101.018,338.966 105.018,339.966 109.5,339.5C 110.498,311.672 110.831,283.672 110.5,255.5C 107.43,255.368 104.43,255.701 101.5,256.5C 101.611,255.883 101.944,255.383 102.5,255C 105.817,254.502 109.15,254.335 112.5,254.5C 112.833,283.174 112.5,311.841 111.5,340.5C 105.141,340.335 98.8073,340.835 92.5,342C 90.792,339.957 88.792,338.29 86.5,337C 88.1802,336.653 89.1802,335.653 89.5,334C 87.8434,330.194 86.5101,326.36 85.5,322.5 Z"/></g>
<g><path style="opacity:1" fill="#be8367" d="M 91.5,331.5 C 94.0892,332.419 96.0892,334.086 97.5,336.5C 94.9108,335.581 92.9108,333.914 91.5,331.5 Z"/></g>
<g><path style="opacity:0.463" fill="#f3bc96" d="M 193.5,336.5 C 195.833,336.833 197.167,338.167 197.5,340.5C 195.833,339.5 194.5,338.167 193.5,336.5 Z"/></g>
<g><path style="opacity:1" fill="#f3835b" d="M 305.5,336.5 C 297.798,343.537 289.798,350.203 281.5,356.5C 280.832,351.839 282.832,349.839 287.5,350.5C 288.575,347.239 289.575,343.905 290.5,340.5C 291.548,339.617 292.715,338.95 294,338.5C 295.301,339.893 296.801,340.393 298.5,340C 298.043,339.586 297.709,339.086 297.5,338.5C 298.522,337.646 299.355,336.646 300,335.5C 301.699,336.406 303.533,336.739 305.5,336.5 Z"/></g>
<g><path style="opacity:1" fill="#eb8965" d="M 217.5,356.5 C 210.539,351.54 203.873,346.206 197.5,340.5C 199.258,340.877 200.925,341.544 202.5,342.5C 203.251,341.624 203.751,340.624 204,339.5C 204.5,340.667 205.333,341.5 206.5,342C 205.672,342.915 204.672,343.581 203.5,344C 206.11,345.481 208.777,346.648 211.5,347.5C 211.772,351.664 214.106,353.497 218.5,353C 217.663,354.011 217.33,355.178 217.5,356.5 Z"/></g>
<g><path style="opacity:1" fill="#ee8863" d="M 232.5,368.5 C 226.874,365.199 221.874,361.199 217.5,356.5C 218.833,356.5 220.167,356.5 221.5,356.5C 221.281,355.325 221.614,354.325 222.5,353.5C 222.833,353.833 223.167,354.167 223.5,354.5C 223.755,356.343 223.922,358.343 224,360.5C 225.916,362.209 228.082,363.543 230.5,364.5C 231.705,365.577 232.372,366.91 232.5,368.5 Z"/></g>
<g><path style="opacity:0.325" fill="#91b0ac" d="M 371.5,359.5 C 376.01,359.884 380.343,360.551 384.5,361.5C 381.15,361.665 377.817,361.498 374.5,361C 373.263,360.768 372.263,360.268 371.5,359.5 Z"/></g>
<g><path style="opacity:0.157" fill="#9fbbb6" d="M 403.5,359.5 C 398.417,361.078 393.084,361.745 387.5,361.5C 392.633,360.335 397.966,359.668 403.5,359.5 Z"/></g>
<g><path style="opacity:0.945" fill="#ec9d81" d="M 275.5,361.5 C 272.859,363.804 270.192,366.138 267.5,368.5C 267.5,367.167 267.5,365.833 267.5,364.5C 270.079,363.344 272.745,362.344 275.5,361.5 Z"/></g>
<g><path style="opacity:1" fill="#e99574" d="M 234.5,370.5 C 235.873,370.343 237.207,370.51 238.5,371C 240.823,373.498 243.157,375.998 245.5,378.5C 241.293,376.565 237.627,373.898 234.5,370.5 Z"/></g>
<g><path style="opacity:0.62" fill="#e0ab87" d="M 245.5,378.5 C 247.764,379.219 250.097,379.552 252.5,379.5C 251.726,380.147 250.726,380.48 249.5,380.5C 247.645,380.66 246.312,379.993 245.5,378.5 Z"/></g>
</svg>
